/* XPM */
static char *_a847726cc0a413bf296607559b8978ea4JKxbHRriF98xfh[] = {
/* columns rows colors chars-per-pixel */
"32 32 142 2 ",
"   c None",
".  c #ED0002",
"X  c #ED060B",
"o  c #ED090E",
"O  c #ED0E12",
"+  c #EE1216",
"@  c #EE1519",
"#  c #EE1A1E",
"$  c #EF1E22",
"%  c #F31F24",
"&  c #FC1F27",
"*  c #EF2226",
"=  c #EF262A",
"-  c #EF282C",
";  c #F32025",
":  c #F4262B",
">  c #FC2028",
",  c #F2292E",
"<  c #EF2E32",
"1  c #F02E32",
"2  c #FC2B33",
"3  c #F03135",
"4  c #F0363A",
"5  c #FA373D",
"6  c #F1393D",
"7  c #F13D41",
"8  c #FE3D44",
"9  c #FF3F48",
"0  c #F14245",
"q  c #FC4047",
"w  c #F14549",
"e  c #FD434A",
"r  c #F1494C",
"t  c #F24F52",
"y  c #FE4D54",
"u  c #F45255",
"i  c #FC5056",
"p  c #F45B5E",
"a  c #F45E61",
"s  c #F46265",
"d  c #F46669",
"f  c #FF656B",
"g  c #F56A6D",
"h  c #F66E71",
"j  c #FF6F74",
"k  c #F67375",
"l  c #F67679",
"z  c #F67B7E",
"x  c #FC7A7E",
"c  c #F67E81",
"v  c #FF7D82",
"b  c #F78285",
"n  c #F98487",
"m  c #F78689",
"M  c #FC8588",
"N  c #F78A8D",
"B  c #F88A8C",
"V  c #F78D90",
"C  c #F98E90",
"Z  c #F79394",
"A  c #F89395",
"S  c #F89698",
"D  c #F89B9D",
"F  c #FD9EA1",
"G  c #F9A2A4",
"H  c #FBA6A8",
"J  c #FAAAAC",
"K  c #FCAEB0",
"L  c #FBB3B5",
"P  c #FBB7B8",
"I  c #FCBBBC",
"U  c #FCBFC0",
"Y  c #FCC6C7",
"T  c #FCC1C3",
"R  c #FCC7C8",
"E  c #FDC8C9",
"W  c #FCC9CA",
"Q  c #FCCBCC",
"!  c #FDCECF",
"~  c #FCCACB",
"^  c #FCD0D1",
"/  c #FDD2D3",
"(  c #FDD3D3",
")  c #FDD3D4",
"_  c #FDD4D5",
"`  c #FED4D5",
"'  c #FDD5D6",
"]  c #FDD4D5",
"[  c #FDD7D8",
"{  c #FDD7D8",
"}  c #FDD8D8",
"|  c #FDD8D9",
" . c #FDDADA",
".. c #FFDADC",
"X. c #FEDBDC",
"o. c #FEDCDC",
"O. c #FEDCDD",
"+. c #FEDDDD",
"@. c #FDDDDE",
"#. c #FEDDDE",
"$. c #FDDEDF",
"%. c #FEDCDD",
"&. c #FEDFE0",
"*. c #FFDFE0",
"=. c #FEE0E0",
"-. c #FEE0E1",
";. c #FEE1E1",
":. c #FEE2E2",
">. c #FEE2E3",
",. c #FEE4E4",
"<. c #FEE6E6",
"1. c #FEE6E7",
"2. c #FEE7E7",
"3. c #FEE3E3",
"4. c #FFE7E8",
"5. c #FFE7E9",
"6. c #FFE7E8",
"7. c #FFE9E9",
"8. c #FFE9EA",
"9. c #FFEAEA",
"0. c #FFEBEC",
"q. c #FFEEEE",
"w. c #FFEEEF",
"e. c #FFEFEF",
"r. c #FFEBEB",
"t. c #FFF2F2",
"y. c #FFF3F3",
"u. c #FFF3F4",
"i. c #FFF4F4",
"p. c #FFF5F6",
"a. c #FFF6F6",
"s. c #FFF7F7",
"d. c #FFF3F4",
"f. c #FFF8F8",
"g. c #FFF9F9",
"h. c #FFF9FA",
"j. c #FFFBFB",
"k. c #FFFCFC",
"l. c #FFFDFD",
"z. c #FFFEFE",
"x. c white",
"c. c #FFFEFE",
/* pixels */
"                              * *                               ",
"                        + - 4 0 w 3 = @                         ",
"                  X = k L T ;.q.[ y.;.L l 4 #                   ",
"            * @ < S ;.Q g.b Z D a x.O.A y.Y A = X +             ",
"            @ a  .;.;.t F m A K A q.G Z c Y f._ d +             ",
"        $ + b x.S p m Y ^ @.{ [ [ O.@. .D  .m J 2.C @ *         ",
"        + B [ A T L @. .H F H J J G F H ) =.G S B 2.C +         ",
"      @ a i.;.d G t.G D P D k j j l D P D G 3.K k V 5.g @       ",
"    $ 1 ^ L i.T i.B T F e + + e e + + e F T C 2.Y s J ;.3 #     ",
"    + S x.b Z 8.V ~ p 2 9 : + K I + : 9 2 p ~ N i.Z / x.D +     ",
"    1 q.x.g.g.G T p O , y 2 7 g.x.w 2 y , O p T D x.x.x.d.3 #   ",
"  + k x.x.x.O.D G 2 : + M L T x.x.~ I x + , 2 G G  .x.x.x.z +   ",
"  @ P x.x.x.G I e e 9 ; s x.x.x.x.x.x.p : 9 q e I G x.x.x.U @   ",
"  * 8.K S x.D D X % 8 9 y g.x.x.x.x.g.y 9 q ; X D D x.N I e.=   ",
"3 3 x.' _ 8.G m g r A T 5 ..x.x.x.x.O.8 I A 0 k B G 8.~ O.x.4 < ",
"  0 O.u B _ J x 5.x.x.x.L Y x.x.x.x.' P x.x.x.e.v J ! z a 8.w   ",
"  0 ..u m _ J f F x.x.x.x.x.x.x.x.x.x.x.x.x.x.J f K ! l p 8.w   ",
"3 3 x.;.@.8.G B I x.x.x.x.x.x.x.x.x.x.x.x.x.x.U B G 5.[ 5.x.4 < ",
"  * q.G D x.S L T x.x.x.x.x.x.x.x.x.x.x.x.x.x.T P S x.N L y.=   ",
"  + P x.x.x.G P e J x.x.x.x.x.x.x.x.x.x.x.x.J e P G x.x.x.T @   ",
"  + l x.x.x.O.D F & x i.x.x.x.x.x.x.x.x.q.k & F F  .q.x.x.z +   ",
"  + 3 y.u.~ i.G T p . k x.x.x.x.x.x.x.x.b . p T G g.B U g.4 +   ",
"    # D ;.m H x.B ~ u M 0.E S L K S I ..C u E B g.J k q.G @     ",
"    7 = e.U m I y.B U P i O . j f . O e J T B q.3.8.&.q.1 3     ",
"      O s x.K z T d.D S P S k H F k S P S D y.T h  .x.g O       ",
"        @ B x.P p T i.$.G D G H H G D G O.g.J z ~ f.N +         ",
"        $ @ B g.Y B e.T a.f.3.} @.8.8.x.Q m G ~ x.V @ *         ",
"            + d 2.y.d.B S l f.8.G T G S z ~ 5.e.g +             ",
"            * + 3 D 8.f. .G q./ z G P _ q.e.G = X @             ",
"                  o , l T 8.i.g.l.a.8.T b 4 @                   ",
"                        @ - 6 w w 6 - @ @   1                   ",
"                        #     $ $     =                         "
};
