/* XPM */
static char *_3c50393cf064058a86186fbfaa93575NzYUtNRRpIzC9AJr[] = {
/* columns rows colors chars-per-pixel */
"16 16 142 2 ",
"   c None",
".  c #F3181D",
"X  c #F3191E",
"o  c #F9292F",
"O  c #F12F32",
"+  c #F12F33",
"@  c #F92A30",
"#  c #FD2A31",
"$  c #FD2A32",
"%  c #F92E35",
"&  c #F92F35",
"*  c #F13033",
"=  c #F13134",
"-  c #F13235",
";  c #F13337",
":  c #F13438",
">  c #F23F42",
",  c #F34044",
"<  c #F24144",
"1  c #F34346",
"2  c #F24447",
"3  c #F34447",
"4  c #F34548",
"5  c #F34649",
"6  c #F34B4E",
"7  c #F84A4F",
"8  c #F34C50",
"9  c #F34D50",
"0  c #F94D51",
"q  c #F4585B",
"w  c #F5595C",
"e  c #F56366",
"r  c #FD6166",
"t  c #F66669",
"y  c #FB676B",
"u  c #F77073",
"i  c #FC7378",
"p  c #FB777A",
"a  c #FC7478",
"s  c #FD767B",
"d  c #FD777B",
"f  c #F7787B",
"g  c #FB797D",
"h  c #F87E80",
"j  c #F97F81",
"k  c #F97F82",
"l  c #F88082",
"z  c #F88184",
"x  c #FB8386",
"c  c #FB878A",
"v  c #F8898B",
"b  c #F9898B",
"n  c #FB8A8D",
"m  c #FC898C",
"M  c #FB8C8F",
"N  c #F98F91",
"B  c #FB8F92",
"V  c #FB9194",
"C  c #F99698",
"Z  c #F99799",
"A  c #FD979A",
"S  c #FA9B9D",
"D  c #FD999C",
"F  c #FD9A9C",
"G  c #FB9C9E",
"H  c #FA9D9F",
"J  c #FD9DA0",
"K  c #FAA1A3",
"L  c #FBA4A5",
"P  c #FAA5A6",
"I  c #FBA6A8",
"U  c #FBA7A9",
"Y  c #FBA8A9",
"T  c #FBA9AA",
"R  c #FBAAAC",
"E  c #FBABAD",
"W  c #FEAAAD",
"Q  c #FBACAE",
"!  c #FBADAF",
"~  c #FCACAE",
"^  c #FEADAF",
"/  c #FCB1B3",
"(  c #FCB2B3",
")  c #FFB1B4",
"_  c #FCB2B4",
"`  c #FFB2B5",
"'  c #FBB4B5",
"]  c #FCB4B5",
"[  c #FCB4B6",
"{  c #FCB5B6",
"}  c #FCB5B7",
"|  c #FFB5B7",
" . c #FCB7B8",
".. c #FCB7B9",
"X. c #FCB8B9",
"o. c #FCB9BA",
"O. c #FDB9BA",
"+. c #FCBABB",
"@. c #FDBABB",
"#. c #FCBBBC",
"$. c #FFBBBD",
"%. c #FCBCBC",
"&. c #FCBCBD",
"*. c #FDBDBE",
"=. c #FDBEBF",
"-. c #FCBFC0",
";. c #FDC0C1",
":. c #FDC1C2",
">. c #FFC3C5",
",. c #FDC4C5",
"<. c #FEC4C5",
"1. c #FDC5C6",
"2. c #FEC5C6",
"3. c #FFC5C7",
"4. c #FDC6C7",
"5. c #FEC6C7",
"6. c #FEC8C9",
"7. c #FDC9CA",
"8. c #FEC9CA",
"9. c #FECACB",
"0. c #FECBCC",
"q. c #FECCCD",
"w. c #FECDCE",
"e. c #FDCFCF",
"r. c #FECFD0",
"t. c #FED0D1",
"y. c #FED3D4",
"u. c #FED4D5",
"i. c #FFD4D5",
"p. c #FFD8D8",
"a. c #FFD8D9",
"s. c #FEDBDB",
"d. c #FFDEDF",
"f. c #FFE0E1",
"g. c #FFE1E2",
"h. c #FFE8E9",
"j. c #FFEAEA",
"k. c #FFEBEC",
"l. c #FFECED",
"z. c #FFEDED",
"x. c #FFF8F8",
"c. c white",
/* pixels */
"            + 3 , *             ",
"        5 N U P 5.X.b t         ",
"      h +.| / ' e.*.5.*.u       ",
"    l 5.X.4.Y n b U 4./ E f     ",
"  , 9.9.+.d @ 7 0 o d -./ y.,   ",
"  K c.q.d X r q.t.r X i i.c.P   ",
"= r.l.Y % # ^ c.c.W # & Y j.i.= ",
"6 Q +.F S >.| c.c.$.>.H H ' | 9 ",
"6 Q X.A j.c.c.c.c.c.c.k.F [ [ 9 ",
": t.l.E ) c.c.c.c.c.c.) Q l.y.: ",
"  U x.q.y h c.c.c.c.h y 5.f.E   ",
"  q >.+.$.m M g p x m $.i.q.q   ",
"    h 5. .r.H B V S 9.+.a.n     ",
"      l t.f.;.d.5.9.;.q.h       ",
"        5 C X.a.X.X.S e         ",
"            * > 3 =             "
};
