/* XPM */
static char *_0f34603b0ba4579a125c1223c5d6b09GHflJj7e3MfSWC52[] = {
/* columns rows colors chars-per-pixel */
"64 64 97 2 ",
"   c None",
".  c #EB0206",
"X  c #ED070B",
"o  c #EC090E",
"O  c #EC0D11",
"+  c #EC1217",
"@  c #ED1519",
"#  c #ED1A1E",
"$  c #F11117",
"%  c #ED1E22",
"&  c #F31D23",
"*  c #ED2024",
"=  c #EE262A",
"-  c #EF2A2E",
";  c #F02227",
":  c #F2252A",
">  c #FE242D",
",  c #F22A2F",
"<  c #EF2D31",
"1  c #F32C31",
"2  c #FD2C35",
"3  c #EF3235",
"4  c #EF3539",
"5  c #F33236",
"6  c #FC3037",
"7  c #F0373A",
"8  c #FD343B",
"9  c #F03A3D",
"0  c #FC383F",
"q  c #FF3740",
"w  c #F03D41",
"e  c #FE3C44",
"r  c #F14346",
"t  c #F24549",
"y  c #FF424A",
"u  c #F1494D",
"i  c #FD484F",
"p  c #F14E51",
"a  c #FE4B53",
"s  c #F25356",
"d  c #FD5057",
"f  c #F25659",
"g  c #FE535A",
"h  c #F25A5D",
"j  c #F35E61",
"k  c #FD5D63",
"l  c #F36164",
"z  c #F36669",
"x  c #FC6469",
"c  c #F4696C",
"v  c #FF696F",
"b  c #F46E71",
"n  c #FD6F74",
"m  c #F47275",
"M  c #FB7277",
"N  c #F57779",
"B  c #F57B7D",
"V  c #FC7A7F",
"C  c #F57E80",
"Z  c #FF7D83",
"A  c #F68385",
"S  c #FC8186",
"D  c #F68688",
"F  c #F68B8D",
"G  c #FB8A8E",
"H  c #F78F91",
"J  c #FD8D91",
"K  c #F79394",
"L  c #FB9295",
"P  c #F79799",
"I  c #FE9599",
"U  c #F79A9B",
"Y  c #F89C9D",
"T  c #F99FA1",
"R  c #F9A3A5",
"E  c #FAA6A8",
"W  c #F9AAAC",
"Q  c #F9AFB0",
"!  c #FAB3B4",
"~  c #FBB7B8",
"^  c #FABABC",
"/  c #FDBEC1",
"(  c #FBC3C4",
")  c #FDC7C9",
"_  c #FCCBCC",
"`  c #FCCFD0",
"'  c #FCD3D3",
"]  c #FDD7D8",
"[  c #FDDCDC",
"{  c #FEDFE0",
"}  c #FDE3E3",
"|  c #FEE7E8",
" . c #FEEBEB",
".. c #FFEFF0",
"X. c #FFF4F4",
"o. c #FFF7F8",
"O. c #FFFFFF",
/* pixels */
"                                                              4 4                                                               ",
"                                                + % %       % % % %       % % %                                                 ",
"                                                # * * % % # + # @ # # # % * % *                                                 ",
"                                    % # # % # % @ + @ * 3 r p s s p r 3 = @ + @ % * * * % <                                     ",
"                                    * % * @ + = f F ^ | X.O.O.O.O.O.o.X.[ ^ H f - + + % % *                                     ",
"                                  * % @ # p Y } O.O.o.` ' O.O.` A X.O.O.O.O.O.O.| R f % @ % <                                   ",
"                          * * * * @ % l ( O.O.O.O.| 4 N t D O.H O W O.O.O.' h U o.O.O._ c % + # # # #                           ",
"                          % * % @ p ) O.O.} p R O.o.3 ( ' * } l p h O.O.O.U 3 / o._ W | O._ h + % * *                           ",
"                        * * @ = Y O.o._ O.[ u < ^ O.s K ] 4 T m P * { O.O.j r [ Q * D m ' O.O.R - @ * %                         ",
"                        * + u ] O.O.o.z  .| z s * _ A w z Q E ] O.z ~ O. .% W X.9 D O.O.O.X.} O.} s + %                         ",
"                  * * % + z X.O.K 4 D U D X.l | N H [ ' X.O.O.O.O.O.O.O.X.Q C ~ h P O.O.^ 3 h D X.o.m + % * %                   ",
"                * * % + N O.O.O.[ 9 s - @ E K O.O.O.O.O.o.} _ ( ( _ } X.O.O.O.O.] l F [ 4 A O.K B O.O.D + * * *                 ",
"                * * + N O.[ ( O.O.R R } Y ) O.O.O.' D s w 9 r u u r 9 w s D ' O.O.o./ } 9 } O.m f O.} O.D + % *                 ",
"                * + c O.O.f % h ( o.b | O.O.O.R u 4 z W { o.O.O.O.O.O.{ W z 4 t R O.O.O.Y N F * / c u O.O.m + *                 ",
"              * @ u o.O.O.! b r * N X.O.O.! 9 r W O.O.o._ E L G G L E _ o.O.O.W r w ! O.O.( A ( m - } ~ ] o.s @ *               ",
"          * * # = [  .( O.o.p _ ] ] O.X.z 3 W O.O.! l < # @ 2 0 0 6 @ @ < l ! O.O.W 3 z o.O.O.F - } R + P O.| - % * *           ",
"        * * * + R O.C ! O.O.T T O.O.[ 9 l X.O.W g ; + % % * q y e e * * % + & g W O.X.l 9 [ O.] ^ B D < ] { O.Q + * * *         ",
"        * * @ s O. .s O.O. .K | O.' - F O.[ x 8 e q * * * % 2 V J 6 * % * % q e 8 x } O.F - ' O.} ( ( 9 R c  .O.j + * *         ",
"          % # _ O.X.4 j ~ c ~ O.[ - Y O.! < 8 y e y , % * % 8 { X.e % % % , y e y 8 1 ! O.Y - [ O.O.B # D o.O.O.' % %           ",
"          @ l O.O.O._ r 9 R O.X.9 F O.W # # 1 y y y q % * + B O.O.H + * % 0 y y y 1 # # W O.F 7 X.O.R E O.O.O.O.O.m + *         ",
"        * # _ O.O.O.O.O.O.O.O.c j O.~ # % * % q y e y , # - } O.O. .4 # : y e y 0 % * % # ~ O.l c O.O.O.O.O.O.O.O.' % %         ",
"    + * @ s O.O.O.O.O.O.O.O.~ 3 X.{ < # % * * * i a 0 8 + H O.O.O.O.T + 8 q g i : % * * @ - } X.3 ~ O.O.O.O.O.O.O.O.h @ * +     ",
"    + * + R O.O.O.O.O.O.O.o.w W O.x 8 1 * % * % r { I y 9 X.O.O.O.O.o.t a W [ 5 % * % % 1 8 x O.W w o.O.O.O.O.O.O.O.! + * @     ",
"    % % = } O.O.O.O.O.O.O.W r O.Q 6 y y 0 * % % * ] O.| ] O.O.O.O.O.O.} ..O.( @ % % * 0 y y 8 ! O.r W O.O.O.O.O.O.O. .< % %     ",
"    * @ f O.O.O.O.O.O.O.O.u W O.g e y e y e 1 % + Q O.O.O.O.O.O.O.O.O.O.O.O.U + % , e y e y e g O.W u O.O.O.O.O.O.O.O.l @ %     ",
"      + H O.O.O.O.O.O.O.' 4 O.! & q y y y y y 8 + A O.O.O.O.O.O.O.O.O.O.O.O.N + 8 y y y y y e & ! O.4 ' O.O.O.O.O.O.O.U + *     ",
"    * @ ^ O.X.~ F O.O.O.F c O.l + * 1 q y e e y 8 j O.O.O.O.O.O.O.O.O.O.O.O.h 2 y e e y q 1 * + l O.c F O.O.o.D ' o.O._ # %     ",
"  # * * [ O.' % + ! O.O.f W o.1 % * % * : a g e e g X.O.O.O.O.O.O.O.O.O.O.o.g e e i k = * * % # < o.W s O.O.H o 3  .O.| - % #   ",
"s # % 3 X.O.O.W D | O.X.w } _ * * # @ + O ! [ t 8 y [ O.O.O.O.O.O.O.O.O.O.} i 8 e _ _ + + + @ - = _ } w X.O.' B ^ O.O.o.w # # u ",
"s # # r o.O.O.] O.O.O.} 9 O.Y 9 [ ~ K c b o.O.' 7 & ^ O.O.O.O.O.O.O.O.O.O._ & 7 _ O.o.f h F ^ | u Y O.9 } O.O.X.} O.O.O.u # # u ",
"  # # p O.O._ % K O.O._ r O.L 8  .O.O.O.O.O.O.O.{ < N O.O.O.O.O.O.O.O.O.O.H 7 } O.O.O.O.O.O.O.X.e L O.r _ O.O.c 3  .O.O.h @ #   ",
"    @ s O.D r % 9 h o._ u O.G 2 ! O.O.O.O.O.O.O.O.{ L O.O.O.O.O.O.O.O.O.O.(  .O.O.O.O.O.O.O.O.) 2 G O.u _ } p 4 * r E O.l @     ",
"    + s O.U + + O l o.) u O.G 2 Z O.O.O.O.O.O.O.O.O.O.O.O.O.O.O.O.O.O.O.O.O.O.O.O.O.O.O.O.O.O.L 2 G O.u _  .r O + # ^ O.l +     ",
"  # # p O.O.P c C X.O._ r O.L 2 i X.O.O.O.O.O.O.O.O.O.O.O.O.O.O.O.O.O.O.O.O.O.O.O.O.O.O.O.O.O.k 2 L O.r _ O.[ b b ! O.O.h + %   ",
"  # # r O.O.O.O.O.O.O.} w O.E o 1 } O.O.O.O.O.O.O.O.O.O.O.O.O.O.O.O.O.O.O.O.O.O.O.O.O.O.O.O. .7 X E O.9 } O.O.O.O.O.O.O.u # # u ",
"s # % 3 X.O.O.K P | O.o.w [ _ z } O.O.O.O.O.O.O.O.O.O.O.O.O.O.O.O.O.O.O.O.O.O.O.O.O.O.O.O.O.O.} m _ { w X.O.} D ~ O.O.o.w # % u ",
"  # % * [ O._ % O ~ O.O.f W X.D O.O.O.O.O.O.O.O.O.O.O.O.O.O.O.O.O.O.O.O.O.O.O.O.O.O.O.O.O.O.O.O.K X.W s O.O.K . 7 | O.| - % #   ",
"    * # ^ O.o.U E O.O.O.F c O.s r [ O.O.O.O.O.O.O.O.O.O.O.O.O.O.O.O.O.O.O.O.O.O.O.O.O.O.O.O.[ r s O.c F O.O...K W o.O._ # *     ",
"      + K O.O.O.O.O.O.O.' 4 O.! $ a _ O.O.O.O.O.O.O.O.O.O.O.O.O.O.O.O.O.O.O.O.O.O.O.O.O.O.) i $ ~ O.4 ' O.O.O.O.O.O.O.T + *     ",
"    * @ h O.O.O.O.O.O.O.O.u W O.g q e W O.O.O.O.O.O.O.O.O.O.O.O.O.O.O.O.O.O.O.O.O.O.O.O.R e 0 g O.W u O.O.O.O.O.O.O.O.z @ *     ",
"    * % - | O.O.O.O.O.O.O.W r O.Q 8 e q S X.O.O.O.O.O.O.O.O.O.O.O.O.O.O.O.O.O.O.O.O. .M 0 e 8 ! O.t W O.O.O.O.O.O.O.X.3 # *     ",
"    * * + E O.O.O.O.O.O.O.o.9 Q O.x 0 1 + p } O.O.O.O.O.O.O.O.O.O.O.O.O.O.O.O.O.O.` w @ 1 0 x O.Q w o.O.' X.O.O.O.O.! @ * *     ",
"    * * @ f O.O.O.O.O.O.O.O.~ 3 X.} , # * + 3 ( O.O.O.O.O.O.O.O.O.O.O.O.O.O.O.O._ * @ * # , { X.< ~ O.o.A u R X.O.O.l @ * *     ",
"        % % _ O.o.} { h Q O.O.c j O.~ # % * O G O.O.O.O.O.O.O.O.O.O.O.O.O.O.O.O._ # * % # ~ O.l c O.O.] T ^ z ' O.] * %         ",
"        % @ c O.O.N 9 K ~  .O.X.9 H O.W # @ , [ O.O.O.O.O.X.[ .. .{ X.O.O.O.O.O.O.t + # W O.H 9 X.O.} ! N w ( O.O.N + %         ",
"          % % ` O._ R | w D X.O.[ - Y O.! = k O.X.] W C f 3 2 / E 6 < p z G ~ '  .v : ~ O.Y - [ O.O.^ < b U [ O.[ * % =         ",
"        f @ @ f O.O.' H j } ~ O.O.' - F O.[ S x a q @ + @ # 2 / E 2 # # + + 6 q q M [ O.F - ' O.o.o.O.} K } O.O.z @ # r         ",
"        s # % @ W O.X.m Y W w ! O.O.[ 9 j X.O.E g & + % % % 6 / E 6 & % % + & g W O.X.l 9 [ O.O.| P O.O.O.X.O.! @ % # w         ",
"          @ * % - } O.O.E p ' r ' O.O.X.z < W O.O.Q l < # + : / Y > @ @ < l Q O.O.W 3 z X.O.O.R Y c } O.O.O. .5 # * #           ",
"              * + s o.O.' _ s W K W X.O.O.! w t W O.O.o.` R H ] ) K E _ o.O.O.W r w ! O.O.o.Y R s 4 A O.O.O.h + *               ",
"                * + m O.O._ R ( f r U O.O.O.o.R u 4 z W [ O.O.O.O.O.O.[ E z 4 u R O.O.O.} C m c O.( _ O.O.C + *                 ",
"                * * + A O.O.O.c s f o.m _ O.O.O.O.' D s w 9 r u u r 9 r s D ' O.O.O.O._ Q u ' m K O.O.O.H @ % %                 ",
"                * * % @ D O.O. .m ] ! p X.O._  .O.O.O.O.o.{ ` ( ( _ } X.O.O.O.O.| ' c N [ [ u ] { O.O.K + % * *                 ",
"                * * * % + m o.O.O.^ 3 ! O.O.) u }  .O.O.O.O.O.O.O.O.O.O.O.{ O.O.D U _ 9 l } _ X.O.O.C + % * * *                 ",
"                        % + s } O.O.' _ O.O.F s o.p ! F o.O.O.|  .]  .o.F D l } R h O.K R ] O.O.} j + %                         ",
"                        * * + < W O.O.O.O._ u Q ( z j r [ O.O.H j c D ( l O.z B s p ' [ O.O.O.! 4 + % *                         ",
"                          * * # @ h ' O.O.O.] | Q R N c _ O.O.Y p m l ' r Q m ] ( [ O.O.O.' z @ # * * *                         ",
"                          * * * * @ % b ' O.O.O.O. . .W ' O.| ! W W K ' [ W } O.O.O.O.' N = @ % * * *                           ",
"                                  * % + % h W  .O.O.O.O.O.O.O.o.O.O.O.O.O.O.O.O. .! l * + % #                                   ",
"                                    * * % @ @ < l P ( | X.O.O.O.O.O.O.o.} _ Y z 3 @ @ % * #                                     ",
"                                    @ + + + + # + + # - 9 u h l l f p 9 - # + + % * % * % -                                     ",
"                                                % * % % # # @ @ @ @ # # % % * *                                                 ",
"                                                + * %       % % * %       * * %                                                 ",
"                                                              - -                                                               "
};
