<?xml version="1.0" encoding="UTF-8" standalone="no"?>
<!-- Created with Inkscape (http://www.inkscape.org/) -->

<svg
   xmlns:dc="http://purl.org/dc/elements/1.1/"
   xmlns:cc="http://creativecommons.org/ns#"
   xmlns:rdf="http://www.w3.org/1999/02/22-rdf-syntax-ns#"
   xmlns:svg="http://www.w3.org/2000/svg"
   xmlns="http://www.w3.org/2000/svg"
   xmlns:sodipodi="http://sodipodi.sourceforge.net/DTD/sodipodi-0.dtd"
   xmlns:inkscape="http://www.inkscape.org/namespaces/inkscape"
   width="1200"
   height="1200"
   viewBox="0 0 1200 1200"
   id="svg2"
   version="1.1"
   inkscape:version="0.91 r13725"
   sodipodi:docname="canada-ecoin.svg">
  <defs
     id="defs4" />
  <sodipodi:namedview
     id="base"
     pagecolor="#ffffff"
     bordercolor="#666666"
     borderopacity="1.0"
     inkscape:pageopacity="0.0"
     inkscape:pageshadow="2"
     inkscape:zoom="0.49497475"
     inkscape:cx="65.894193"
     inkscape:cy="615.66011"
     inkscape:document-units="px"
     inkscape:current-layer="layer1"
     showgrid="false"
     inkscape:window-width="1920"
     inkscape:window-height="1016"
     inkscape:window-x="0"
     inkscape:window-y="27"
     inkscape:window-maximized="1"
     units="px" />
  <metadata
     id="metadata7">
    <rdf:RDF>
      <cc:Work
         rdf:about="">
        <dc:format>image/svg+xml</dc:format>
        <dc:type
           rdf:resource="http://purl.org/dc/dcmitype/StillImage" />
        <dc:title></dc:title>
      </cc:Work>
    </rdf:RDF>
  </metadata>
  <g
     inkscape:label="Layer 1"
     inkscape:groupmode="layer"
     id="layer1"
     transform="translate(0,147.63784)">
    <path
       style="fill:#000000"
       d="m 573.83467,958.83731 c -3.025,-0.4261 -10,-1.0322 -15.5,-1.3467 -5.5,-0.3146 -13.375,-1.0143 -17.5,-1.5549 -4.125,-0.5407 -9.525,-1.2456 -12,-1.5666 -2.475,-0.3209 -6.75,-0.997 -9.5,-1.5024 -2.75,-0.5054 -7.925,-1.4196 -11.5,-2.0316 -6.19651,-1.0607 -8.91612,-1.6173 -19.75,-4.0422 -7.63255,-1.7083 -18.61043,-4.5115 -23.25,-5.9369 -1.375,-0.4224 -4.525,-1.3405 -7,-2.0401 -11.64701,-3.2923 -35.02434,-11.319 -46.75,-16.05171 -1.2375,-0.4995 -3.2625,-1.311 -4.5,-1.80338 -1.2375,-0.4924 -4.725,-2.0249 -7.75,-3.4056 -3.025,-1.3807 -7.75,-3.4927 -10.5,-4.6934 -9.02775,-3.9416 -19.82986,-9.3465 -30.42506,-15.22333 -5.73378,-3.18036 -10.53825,-5.78247 -10.67659,-5.78247 -0.13835,0 -3.88457,-2.25 -8.32494,-5 -4.44038,-2.75 -11.78591,-7.29717 -16.32341,-10.10483 -4.5375,-2.80766 -8.475,-5.42893 -8.75,-5.82505 -0.275,-0.39613 -3.425,-2.67768 -6.99997,-5.07012 -3.575,-2.39244 -6.725,-4.63035 -7,-4.97312 -0.275,-0.34278 -2.075,-1.72015 -4,-3.06081 -1.925,-1.34067 -4.175,-2.98037 -5,-3.64379 -0.825,-0.66342 -5.325,-4.24545 -10,-7.96007 -4.675,-3.71463 -8.725,-7.00374 -9,-7.30914 -0.275,-0.3054 -3.875,-3.46425 -8,-7.01966 -9.7587,-8.41123 -37.7971,-36.44019 -46.0488,-46.03341 -3.5482,-4.125 -6.7006,-7.725 -7.0054,-8 -0.3048,-0.275 -3.5934,-4.325 -7.308,-9 -3.7147,-4.675 -7.4997,-9.4 -8.4112,-10.5 -0.9115,-1.1 -4.6926,-6.275 -8.4025,-11.5 -3.7099,-5.225 -7.2381,-10.0704 -7.8405,-10.76756 -1.0063,-1.16461 -4.8626,-7.26803 -15.2368,-24.11559 -7.5402,-12.24519 -13.3637,-22.85513 -20.6466,-37.61685 -6.2428,-12.65348 -11.4012,-24.02009 -14.0684,-31 -1.165,-3.0489 -2.6294,-6.68092 -4.0318,-10 -2.9433,-6.96588 -7.74,-20.2958 -8.9961,-25 -0.4406,-1.65 -1.7887,-5.925 -2.9958,-9.5 -3.8119,-11.28916 -9.6772,-34.54809 -13.113202,-52 -12.5806,-63.89911 -12.5806,-134.10089 0,-198 3.436002,-17.45191 9.301302,-40.71084 13.113202,-52 1.2071,-3.575 2.5552,-7.85 2.9958,-9.5 0.898,-3.36304 5.5688,-16.66003 7.201,-20.5 0.5845,-1.375 1.4525,-3.5125 1.9289,-4.75 0.4764,-1.2375 1.3764,-3.4875 2,-5 0.6236,-1.5125 1.4777,-3.65 1.898,-4.75 6.7628,-17.69806 22.4322,-48.66981 34.715,-68.61685 10.983,-17.83633 14.5198,-23.42727 15.108,-23.88315 0.3548,-0.275 2.6406,-3.425 5.0795,-7 2.4389,-3.575 5.3639,-7.65729 6.5,-9.07175 1.1361,-1.41446 3.1907,-4.0792 4.5657,-5.92163 3.1085,-4.16522 15.1935,-19.32786 15.9458,-20.00662 0.3048,-0.275 3.4572,-3.875 7.0054,-8 8.2517,-9.59322 36.2901,-37.622178 46.0488,-46.033408 4.125,-3.55541 7.725,-6.71426 8,-7.01966 0.275,-0.3054 4.325,-3.59451 9,-7.30914 4.675,-3.71462 9.175,-7.29665 10,-7.96007 0.825,-0.66342 3.075,-2.30312 5,-3.64379 1.925,-1.34066 3.725,-2.73166 4,-3.09111 1.2926,-1.68955 46.25399,-30.9428213 47.55817,-30.9428213 0.19458,0 2.6571,-1.358079 5.47225,-3.01795302 6.26982,-3.69681998 28.63822,-15.05346168 35.46955,-18.00821568 2.75,-1.189458 7.475,-3.292326 10.5,-4.673041 3.025,-1.380715 6.5125,-2.91323 7.75,-3.40559 1.2375,-0.49236 3.2625,-1.303868 4.5,-1.803352 11.72566,-4.732746 35.10299,-12.759424 46.75,-16.051757 2.475,-0.699624 5.625,-1.617665 7,-2.040091 8.21007,-2.52229 29.34775,-7.491122 42,-9.872934 12.30295,-2.316057 16.98662,-2.984823 42.74705,-6.103709 27.62563,-3.344714 76.88027,-3.344714 104.5059,0 25.76043,3.118886 30.4441,3.787652 42.74705,6.103709 12.65225,2.381812 33.78993,7.350644 42,9.872934 1.375,0.422426 4.525,1.340467 7,2.040091 11.64701,3.292333 35.02434,11.319011 46.75,16.051757 1.2375,0.499484 3.2625,1.310992 4.5,1.803352 1.2375,0.49236 4.725,2.024875 7.75,3.40559 3.025,1.380715 7.75,3.483583 10.5,4.673041 6.83133,2.954754 29.19973,14.3113957 35.46955,18.00821568 2.81515,1.65987402 5.27767,3.01795302 5.47225,3.01795302 1.30418,0 46.26558,29.2532713 47.5582,30.9428213 0.275,0.35945 2.075,1.75045 4,3.09111 1.925,1.34067 4.175,2.98037 5,3.64379 0.825,0.66342 5.325,4.24545 10,7.96007 4.675,3.71463 8.725,7.00374 9,7.30914 0.275,0.3054 3.875,3.46425 8,7.01966 9.75872,8.41123 37.79704,36.440188 46.04877,46.033408 3.54818,4.125 6.70061,7.725 7.0054,8 0.75231,0.67876 12.83736,15.8414 15.94586,20.00662 1.375,1.84243 3.4295,4.50717 4.5656,5.92163 1.1362,1.41446 4.0612,5.49675 6.5,9.07175 2.4389,3.575 4.7247,6.725 5.0795,7 0.7883,0.61088 16.7326,26.2169 21.0983,33.88315 12.162,21.35648 23.4106,44.63286 30.6228,63.36685 0.7936,2.06128 1.3005,3.30901 4.0626,10 1.6418,3.97688 6.2406,17.15403 7.0673,20.25 0.4405,1.65 1.7887,5.925 2.9958,9.5 2.0535,6.08167 4.8966,16.24549 7.1329,25.5 0.5317,2.2 1.3507,5.575 1.8201,7.5 15.6719,64.27229 17.879,139.05326 6.0945,206.5 -4.5394,25.98062 -13.2703,60.09707 -19.7053,77 -0.8376,2.2 -2.1781,6.025 -2.9789,8.5 -0.8007,2.475 -1.8833,5.5125 -2.4056,6.75 -2.2016,5.21643 -4.5729,11.06381 -5.9814,14.75 -5.4547,14.27454 -18.1561,40.16954 -28.8167,58.75 -1.1833,2.0625 -3.1058,5.43525 -4.2721,7.49501 -1.1663,2.05975 -3.3514,5.54725 -4.8558,7.75 -1.5045,2.20274 -4.5533,7.01126 -6.7753,10.6856 -2.2219,3.67433 -4.5545,7.27433 -5.1835,8 -0.629,0.72566 -4.179,5.59439 -7.8889,10.81939 -3.7099,5.225 -7.4911,10.4 -8.4026,11.5 -0.9115,1.1 -4.6965,5.825 -8.4111,10.5 -3.71465,4.675 -7.00326,8.725 -7.30806,9 -0.30479,0.275 -3.45722,3.875 -7.0054,8 -8.25173,9.59322 -36.29005,37.62218 -46.04877,46.03341 -4.125,3.55541 -7.725,6.71426 -8,7.01966 -0.275,0.3054 -4.325,3.59451 -9,7.30914 -4.675,3.71462 -9.175,7.29665 -10,7.96007 -0.825,0.66342 -3.075,2.30312 -5,3.64379 -1.925,1.34066 -3.725,2.71803 -4,3.06081 -0.275,0.34277 -3.425,2.58068 -7,4.97312 -3.575,2.39244 -6.725,4.63836 -7,4.99094 -0.77879,0.9985 -9.78298,7.00906 -10.5,7.00906 -0.35181,0 -2.52073,1.28514 -4.81982,2.85588 -4.06335,2.77605 -17.66005,11.14412 -18.10733,11.14412 -0.1225,0 -4.91401,2.60211 -10.64779,5.78247 -10.5952,5.87683 -21.39731,11.28173 -30.42506,15.22333 -2.75,1.2007 -7.475,3.3127 -10.5,4.6934 -7.37174,3.3647 -8.05008,3.6426 -21.37188,8.75349 -7.29716,2.7996 -30.10307,10.3801 -37.62812,12.5072 -2.475,0.6996 -5.625,1.6177 -7,2.0401 -5.25578,1.6147 -15.0301,4.1079 -23,5.8669 -2.475,0.5462 -6.525,1.4445 -9,1.9964 -2.475,0.5517 -7.425,1.5038 -11,2.1158 -3.575,0.612 -8.75,1.5262 -11.5,2.0316 -2.75,0.5054 -7.025,1.1815 -9.5,1.5024 -2.475,0.321 -7.875,1.0184 -12,1.5498 -4.125,0.5314 -11.325,1.1972 -16,1.4795 -4.675,0.2823 -12.67182,0.9845 -17.77072,1.5604 -5.09889,0.5759 -10.54429,0.7674 -12.10089,0.4255 l -2.83017,-0.6216 -0.64911,-10.609 c -0.35701,-5.8348 -0.64911,-19.2873 -0.64911,-29.89419 0,-20.81916 -0.0123,-20.77216 5.5,-20.95686 19.7101,-0.66044 48.40495,-4.12951 71,-8.58356 28.67573,-5.65271 67.17904,-17.57786 90.25,-27.95201 2.3375,-1.05109 6.3875,-2.85295 9,-4.00413 7.29349,-3.21384 24.22348,-11.64825 29.25,-14.57215 4.90542,-2.85347 9.02108,-5.21395 14.61836,-8.38419 1.9901,-1.12716 6.91978,-4.27716 10.95484,-7 4.03506,-2.72283 7.72195,-4.9506 8.19308,-4.9506 0.47113,0 1.72895,-0.80942 2.79516,-1.79871 1.06621,-0.98929 4.86356,-3.77118 8.43856,-6.18199 6.54334,-4.41251 13.29049,-9.44109 15.81187,-11.78443 0.74869,-0.69582 3.0098,-2.49582 5.02469,-4 2.01489,-1.50418 5.01344,-3.98791 6.66344,-5.51941 1.65,-1.5315 4.8859,-4.2315 7.19089,-6 5.44445,-4.17726 38.29056,-37.3095 45.32065,-45.71546 2.98985,-3.575 5.67544,-6.725 5.96797,-7 0.29253,-0.275 1.76,-2.14855 3.26105,-4.16344 1.50105,-2.01489 3.29849,-4.276 3.99431,-5.02469 2.34334,-2.52138 7.37192,-9.26853 11.78443,-15.81187 2.41081,-3.575 5.1927,-7.37235 6.18199,-8.43856 0.98929,-1.06621 1.79871,-2.31871 1.79871,-2.78334 0,-0.46462 3.04705,-5.44227 6.77122,-11.06144 3.72417,-5.61916 7.42291,-11.56666 8.21943,-13.21666 0.79651,-1.65 2.60942,-4.8 4.02868,-7 2.50217,-3.8786 12.9939,-24.89086 16.4774,-33 0.945,-2.2 2.7443,-6.25 3.9984,-9 1.254,-2.75 3.6363,-8.6 5.2939,-13 1.6576,-4.4 3.7756,-10.025 4.7068,-12.5 2.7652,-7.35 3.9551,-11.15916 10.4652,-33.5 0.9617,-3.3 2.3155,-8.7 3.0086,-12 0.693,-3.3 1.6134,-7.35 2.0452,-9 0.4318,-1.65 1.3101,-5.925 1.9519,-9.5 0.6418,-3.575 1.5632,-8.3 2.0476,-10.5 0.4843,-2.2 1.3457,-7.6 1.9141,-12 0.5685,-4.4 1.4702,-11.375 2.0038,-15.5 0.5336,-4.125 1.5266,-16.85679 2.2066,-28.29288 2.2393,-37.66015 -1.828,-81.59284 -11.3139,-122.20712 -0.5139,-2.2 -1.3252,-5.8 -1.803,-8 -1.2284,-5.65584 -8.0327,-29.09225 -9.4583,-32.57749 -0.5047,-1.23407 2.0027,-2.86685 11.5175,-7.5 13.1562,-6.40628 15.9189,-8.85082 15.9189,-14.08589 0,-3.66639 -4.9328,-14.43767 -8.2829,-18.08662 -3.5989,-3.91992 -5.9467,-3.36986 -25.7171,6.0251 -16.4892,7.83572 -21.2295,9.82871 -21.86536,9.1929 -0.3399,-0.3399 0.093,-1.01593 0.96216,-1.50229 4.2417,-2.3738 32.9461,-26.21725 34.9499,-29.03138 2.0796,-2.9205 2.1855,-3.61707 1.1424,-7.51684 -0.6322,-2.36394 -3.0104,-8.26244 -5.2849,-13.10778 -2.2744,-4.84534 -5.2362,-11.16144 -6.5816,-14.03577 -4.4521,-9.5111 -10.0546,-11.45417 -19.723,-6.8403 -2.8048,1.3385 -8.92463,4.20169 -13.59963,6.36265 -4.675,2.16095 -12.325,5.74749 -17,7.97009 -4.675,2.22259 -14.2998,6.78738 -21.38844,10.14396 -7.08864,3.35659 -13.72614,7.06876 -14.75,8.24928 -1.02386,1.18052 -1.86156,3.65799 -1.86156,5.5055 0,3.59534 6.13591,17.37286 8.67596,19.48091 2.84365,2.36002 8.69286,1.07937 20.36691,-4.45924 25.56933,-12.13106 31.26619,-14.71106 31.64556,-14.33169 0.41121,0.41121 -7.00502,6.41168 -24.83235,20.09185 -18.99124,14.57333 -20.01487,16.29378 -15.44176,25.95338 1.32788,2.80482 4.88521,10.35355 7.90519,16.77496 5.64229,11.99725 8.24412,14.82471 13.64173,14.82471 2.06289,0 3.45342,-0.5762 20.90229,-8.66131 5.1499,-2.38628 9.5059,-4.33869 9.68,-4.33869 0.1741,0 1.3075,3.2625 2.5188,7.25 1.2112,3.9875 2.7699,9.05 3.4636,11.25 2.4383,7.73249 7.3258,29.20848 9.3308,41 9.0525,53.23876 8.366,110.646 -1.9314,161.5 -1.5103,7.45851 -6.054,26.22966 -7.3827,30.5 -0.6846,2.2 -2.2666,7.375 -3.5156,11.5 -2.6976,8.909 -5.8281,17.82301 -7.1069,20.23643 -0.5061,0.95504 -0.9201,2.21428 -0.9201,2.79831 0,0.58403 -0.9,2.92466 -2,5.2014 -1.1,2.27673 -2.00003,4.53335 -2.00003,5.0147 0,0.48135 -1.29391,3.65933 -2.87535,7.06217 -1.58144,3.40284 -3.65062,7.98699 -4.59816,10.18699 -3.09202,7.17903 -10.88059,22.88701 -13.88339,28 -1.61504,2.75 -4.29721,7.475 -5.96037,10.5 -3.10813,5.65311 -20.47619,32.10537 -21.6672,33 -0.3661,0.275 -2.5564,3.2 -4.86732,6.5 -15.95029,22.77702 -57.01143,65.4137 -75.56551,78.46501 -1.14549,0.80576 -2.9827,2.31302 -4.0827,3.34947 -1.1,1.03646 -4.7,3.71843 -8,5.95994 -3.3,2.24151 -6.225,4.37429 -6.5,4.73952 -0.67305,0.89389 -24.04065,16.47698 -28.47542,18.98934 -1.93852,1.0982 -5.21208,2.97106 -7.27458,4.16192 -11.91747,6.88098 -25.6743,13.93455 -36.75,18.84293 -2.75,1.21871 -7.37584,3.29044 -10.27964,4.60385 -2.90379,1.31341 -5.63177,2.38802 -6.06217,2.38802 -0.43039,0 -2.64532,0.9 -4.92205,2 -2.27674,1.1 -4.61737,2 -5.2014,2 -0.58403,0 -1.84327,0.43711 -2.79831,0.97135 -1.77517,0.99303 -22.12802,7.7229 -30.23643,9.99798 -2.475,0.69444 -5.625,1.61741 -7,2.05104 -2.4147,0.76152 -7.05644,1.88106 -16.5,3.97963 -12.3349,2.74109 -14.16719,3.07373 -32.5,5.90015 -12.82027,1.97654 -25.70778,3.1144 -38,3.35509 l -12.5,0.24476 0.32358,-47.44896 c 0.30887,-45.29227 0.41295,-47.57447 2.28977,-50.21023 1.08141,-1.51869 3.33167,-3.73357 5.00059,-4.92194 2.76031,-1.96551 3.54707,-2.06575 8.71023,-1.10974 3.1217,0.57802 9.27583,1.53633 13.67583,2.12959 11.81091,1.59248 33.72598,4.75829 53,7.6563 9.35,1.40585 19.7,2.93608 23,3.40052 10.57722,1.48864 20.68577,2.99706 33.5,4.99896 6.875,1.07405 21.725,3.33708 33,5.02897 11.275,1.69188 21.47059,3.317 22.65686,3.61137 2.84617,0.70627 5.68829,-0.90973 8.81913,-5.01447 l 2.55729,-3.35278 -1.5647,-6.88379 c -4.42845,-19.4827 -4.87763,-21.37305 -7.33859,-30.8838 -4.33543,-16.75499 -5.53735,-22.71591 -5.56498,-27.59969 -0.0474,-8.38575 2.01471,-10.68789 26.55559,-29.64601 5.15867,-3.98513 15.9044,-12.32113 23.8794,-18.52445 7.975,-6.20332 23.725,-18.4493 35,-27.21329 11.275,-8.764 31.525,-24.5227 45,-35.01933 25.04611,-19.51019 30.9459,-24.089 46.23853,-35.88558 9.76566,-7.53313 11.76147,-9.85777 11.76147,-13.6993 0,-5.31904 -2.62263,-7.25352 -28,-20.65314 -7.14556,-3.77296 -13.50589,-9.89411 -14.23301,-13.69777 -0.55663,-2.91187 0.3421,-8.37557 3.05322,-18.56144 1.09792,-4.125 3.41691,-12.9 5.15331,-19.5 3.266,-12.41401 6.58377,-24.78306 8.04694,-30 0.46277,-1.65 1.71795,-6.375 2.7893,-10.5 1.07134,-4.125 4.06851,-15.47283 6.66038,-25.2174 l 4.71248,-17.7174 -2.00692,-2.81845 c -3.38338,-4.75153 -6.38951,-5.80911 -12.45106,-4.3804 -2.87355,0.6773 -7.02464,1.6501 -9.22464,2.16179 -3.55665,0.82722 -24.96663,5.34401 -52.5,11.07575 -10.0886,2.10019 -16.30636,3.47695 -22,4.87131 -8.16886,2.00055 -11.8159,2.17137 -14.65931,0.68665 -5.96202,-3.11314 -8.0716,-6.69962 -13.66947,-23.23932 -6.6553,-19.66404 -7.86476,-22.07031 -12.11089,-24.09515 -4.31898,-2.05958 -7.09258,-1.27441 -12.06033,3.41415 -2.2,2.07636 -11.2,10.09715 -20,17.82398 -8.8,7.72684 -26.97901,23.69807 -40.3978,35.49164 -13.4188,11.79357 -25.7938,22.66206 -27.5,24.15221 -3.98526,3.48059 -7.92717,3.55658 -11.26658,0.21717 -2.1779,-2.1779 -2.47146,-3.13858 -1.90984,-6.25 0.88561,-4.90638 2.2909,-13.32849 3.45002,-20.67653 0.52056,-3.3 2.37645,-14.775 4.1242,-25.5 1.74775,-10.725 3.58774,-22.0875 4.08887,-25.25 0.50112,-3.1625 1.34523,-8.3375 1.87579,-11.5 0.53057,-3.1625 1.43057,-8.5625 2,-12 0.56944,-3.4375 1.52702,-9.0625 2.12796,-12.5 0.60094,-3.4375 1.43592,-8.5 1.85552,-11.25 0.4196,-2.75 1.76768,-11.075 2.99574,-18.5 1.90155,-11.49711 4.02798,-24.40323 9.06184,-55 0.49768,-3.025 1.19465,-7.09989 1.54883,-9.05532 0.53171,-2.93565 0.18326,-4.10283 -1.99922,-6.69655 -1.45374,-1.72768 -3.50447,-3.4146 -4.55717,-3.74871 -1.29426,-0.41079 -11.63069,4.26685 -31.92335,14.44655 -32.16776,16.13678 -34.44421,16.87275 -39.68995,12.83166 -4.42831,-3.41138 -4.9988,-4.27654 -15.34942,-23.27763 -2.39684,-4.4 -5.35473,-9.8 -6.57309,-12 -4.49728,-8.1208 -30.81721,-56.21288 -34.20513,-62.5 -1.92645,-3.575 -4.51392,-8.3 -5.74994,-10.5 -1.23601,-2.2 -3.94794,-7.15 -6.02649,-11 -8.18691,-15.16418 -10.96698,-17.59681 -17.14261,-15.00015 -2.8325,1.19098 -7.51911,8.60052 -20.8729,33.00015 -1.50507,2.75 -4.25046,7.61161 -6.10088,10.80358 -1.85042,3.19196 -3.3644,5.96883 -3.3644,6.17082 0,0.20198 -2.42061,4.56537 -5.37913,9.69642 -5.76677,10.00147 -25.16358,44.4449 -30.59546,54.32918 -10.7897,19.6338 -13.7014,23.08633 -20.38457,24.17086 -2.54289,0.41265 -5.72203,-0.66077 -14.69293,-4.96099 -6.29635,-3.01817 -15.27291,-7.28695 -19.94791,-9.48618 -4.675,-2.19923 -14.25441,-6.74924 -21.28758,-10.11114 -7.03317,-3.3619 -12.98001,-6.11255 -13.2152,-6.11255 -0.2352,0 -2.01829,1.39662 -3.96242,3.10359 -4.17498,3.66568 -4.22916,4.35328 -1.42409,18.0729 1.16089,5.67793 2.31038,11.44851 2.55442,12.82351 0.24404,1.375 0.83267,4.3 1.30806,6.5 1.2797,5.92211 2.71028,13.18695 6.10446,31 1.67679,8.8 4.2007,21.625 5.60868,28.5 1.40798,6.875 2.99414,14.75 3.52479,17.5 0.53065,2.75 1.32315,6.8 1.7611,9 4.51952,22.70317 10.4228,52.62472 15.09282,76.5 0.5917,3.025 1.49412,7.12721 2.00538,9.11602 1.07259,4.17233 1.20403,9.00519 0.3084,11.33918 -0.8555,2.22938 -6.10063,4.80217 -7.81232,3.83201 -1.85031,-1.04873 -7.17797,-5.81452 -18.0665,-16.16114 -4.95,-4.70365 -12.83319,-12.16873 -17.5182,-16.58908 -25.49543,-24.05513 -41.82192,-39.51364 -54.16673,-51.28699 -8.40809,-8.01886 -10.79463,-8.77929 -16.54649,-5.27226 -2.57184,1.56811 -4.95056,5.40405 -11.65379,18.79298 -10.92974,21.83092 -15.63156,26.43505 -25.42519,24.89697 -7.66763,-1.2042 -15.97081,-2.58433 -24.18957,-4.02074 -4.675,-0.81706 -17.275,-2.8904 -28,-4.60744 -20.3807,-3.26286 -27.0062,-4.4227 -35.762,-6.26032 -6.2355,-1.30868 -8.5858,-0.40424 -12.0366,4.63185 l -2.2836,3.33261 14.6025,50.87817 c 19.0337,66.31708 17.5569,60.5237 16.4421,64.50164 -1.5795,5.63625 -4.7621,8.49375 -22.4607,20.16606 -13.265,8.74843 -17.4362,12.02782 -18.9927,14.93206 -1.9408,3.62157 -1.9457,3.812 -0.1827,7.0858 0.9965,1.85032 5.4823,6.25061 9.9686,9.77842 7.9865,6.28034 109.8319,87.69211 118.70507,94.88888 2.475,2.00739 7.86394,6.3218 11.97542,9.58757 4.11147,3.26576 8.38647,6.68157 9.5,7.59068 1.11352,0.90911 5.62458,4.50255 10.02458,7.98544 4.4,3.48288 8.51361,6.78907 9.14135,7.34707 0.62774,0.55801 4.56248,3.66193 8.74388,6.8976 8.9263,6.9074 13.61477,13.31626 13.61477,18.61059 0,2.0079 -4.7066,17.51367 -10.45912,34.45726 -10.00807,29.47799 -10.3953,30.92996 -8.97919,33.66841 0.81396,1.57402 2.60952,3.602 3.99013,4.50661 2.37414,1.5556 3.47066,1.45078 20.22919,-1.93372 9.74545,-1.96816 31.66899,-6.29965 48.71899,-9.62553 37.82602,-7.37857 39.73711,-7.75295 46,-9.01128 9.8309,-1.9752 48.12053,-9.10572 54.5,-10.14931 3.575,-0.58482 8.12721,-1.47793 10.11602,-1.98469 7.95665,-2.0274 13.24049,-0.31668 16.7973,5.43837 2.07444,3.35651 2.10247,4.12722 1.84655,50.77425 l -0.25987,47.366 -11.5,-0.27653 c -11.31694,-0.27213 -23.20338,-1.37179 -36,-3.33052 -17.87716,-2.73637 -20.14961,-3.14842 -32.5,-5.89295 -9.44356,-2.09857 -14.0853,-3.21811 -16.5,-3.97963 -1.375,-0.43363 -4.525,-1.3566 -7,-2.05104 -8.10841,-2.27508 -28.46126,-9.00495 -30.23643,-9.99798 -0.95504,-0.53424 -2.21428,-0.97135 -2.79831,-0.97135 -0.58403,0 -2.92466,-0.9 -5.2014,-2 -2.27673,-1.1 -4.49166,-2 -4.92205,-2 -0.4304,0 -3.15838,-1.07461 -6.06217,-2.38802 -2.9038,-1.31341 -7.52964,-3.38514 -10.27964,-4.60385 -11.0757,-4.90838 -24.83253,-11.96195 -36.75,-18.84293 -2.0625,-1.19086 -5.33606,-3.06372 -7.27458,-4.16192 -4.43477,-2.51236 -27.80237,-18.09545 -28.47542,-18.98934 -0.275,-0.36523 -3.2,-2.49801 -6.5,-4.73952 -3.3,-2.24151 -6.9,-4.92348 -8,-5.95994 -1.1,-1.03645 -2.93949,-2.54371 -4.08776,-3.34947 -8.42324,-5.91072 -31.93581,-28.00606 -47.41221,-44.55448 -10.8133,-11.56231 -16.2223,-18.06515 -27.3745,-32.91053 -2.0658,-2.75 -4.3767,-5.76344 -5.1352,-6.69654 -2.3167,-2.84979 -17.4903,-25.70424 -17.4903,-26.34381 0,-0.32962 -1.35,-2.56146 -3,-4.95965 -1.65,-2.39819 -3,-4.57078 -3,-4.82797 0,-0.25719 -1.7123,-3.32611 -3.805,-6.81983 -3.6527,-6.09801 -11.1088,-20.96429 -14.7215,-29.3522 -0.9476,-2.2 -3.0167,-6.78415 -4.5982,-10.18699 -1.5814,-3.40284 -2.8753,-6.58082 -2.8753,-7.06217 0,-0.48135 -0.9,-2.73797 -2,-5.0147 -1.1,-2.27674 -2,-4.61737 -2,-5.2014 0,-0.58403 -0.4371,-1.84327 -0.9714,-2.79831 -1.0491,-1.87539 -7.4857,-21.37798 -10.8043,-32.73643 -20.4593,-70.02501 -20.4713,-159.96867 -0.031,-231 3.2615,-11.33373 3.9018,-12.67901 5.6994,-11.97417 16.1436,6.32969 26.611,7.42323 33.6071,3.51096 11.5665,-6.4681 17.7403,-15.02238 24.5651,-34.03679 2.9037,-8.08999 3.2318,-23.27911 0.6292,-29.1209 -2.2597,-5.07192 -10.7822,-12.48541 -15.335,-13.33953 -6.1485,-1.15346 -8.8421,1.78541 -15.3055,16.69953 -3.5111,8.1018 -2.3568,11.77651 4.9974,15.90985 4.9164,2.76316 5.8622,5.73936 3.3228,10.45655 -3.2233,5.98766 -4.2038,5.827 -29.874,-4.89505 -23.1392,-9.66487 -26.5,-11.70838 -26.5,-16.11304 0,-1.27858 1.1834,-3.50811 2.6298,-4.95452 2.347,-2.34698 3.1806,-2.57193 7.75,-2.09145 3.2799,0.34488 6.0187,0.0656 7.6202,-0.77701 4.378,-2.30352 11.7302,-20.01697 10.4407,-25.15462 -0.3647,-1.45308 -2.0755,-3.64948 -3.8019,-4.88089 -2.6283,-1.87475 -4.3251,-2.21344 -10.4322,-2.08229 -4.1727,0.0896 -8.6653,0.81238 -10.5,1.68923 -6.0862,2.90887 -14.6307,13.43604 -19.605,24.15414 -1.2763,2.75 -2.6991,5.74599 -3.1619,6.65777 -0.4628,0.91177 -1.5904,5.35427 -2.5059,9.87223 -1.799,8.87831 -1.4154,17.37636 1.0506,23.27849 1.6749,4.00846 8.8241,10.78793 14.3483,13.60618 2.2174,1.13121 4.3239,2.52961 4.681,3.10756 0.3572,0.57794 -0.049,3.39687 -0.9024,6.26429 -2.3263,7.81506 -5.3283,18.82606 -6.0562,22.21348 -0.3545,1.65 -1.0203,4.575 -1.4794,6.5 -9.1892,38.52627 -13.4472,84.4395 -11.2448,121.25 1.4001,23.40039 3.4257,41.78477 6.1424,55.75 0.4815,2.475 1.4045,7.425 2.0511,11 0.6467,3.575 1.529,7.85 1.9608,9.5 0.4318,1.65 1.3521,5.7 2.0452,9 0.6931,3.3 2.0469,8.7 3.0085,12 6.5101,22.34084 7.7001,26.15 10.4653,33.5 0.9312,2.475 3.0492,8.1 4.7068,12.5 1.6576,4.4 4.0399,10.25 5.2939,13 1.2541,2.75 3.0534,6.8 3.9984,9 3.4835,8.10914 13.9752,29.1214 16.4774,33 1.4192,2.2 3.2321,5.35 4.0287,7 0.7965,1.65 4.4952,7.5975 8.2194,13.21666 3.7242,5.61917 6.7712,10.59682 6.7712,11.06144 0,0.46463 0.8094,1.71713 1.7987,2.78334 0.9893,1.06621 3.7712,4.86356 6.182,8.43856 4.4125,6.54334 9.4411,13.29049 11.7844,15.81187 0.6959,0.74869 2.4958,3.0098 3.9999,5.02469 1.5042,2.01489 4.5047,5.5857 6.6679,7.93513 2.1632,2.34942 4.8633,5.59459 6.0001,7.21148 2.8136,4.0016 36.5055,37.28639 44.567,44.02837 3.575,2.98985 6.725,5.67544 7,5.96797 0.275,0.29253 2.14855,1.76 4.16344,3.26105 2.01489,1.50105 4.276,3.29849 5.02469,3.99431 2.52138,2.34334 9.26853,7.37192 15.81187,11.78443 3.575,2.41081 7.37235,5.1927 8.43856,6.18199 1.06621,0.98929 2.32403,1.79871 2.79516,1.79871 0.47113,0 4.15802,2.22777 8.19308,4.9506 4.03506,2.72284 8.96474,5.87284 10.95484,7 5.59728,3.17024 9.71294,5.53072 14.61836,8.38419 5.0812,2.95571 21.95007,11.35357 29.5,14.68604 2.75,1.21382 6.8,3.01568 9,4.00413 40.47986,18.18738 101.29235,32.84634 147.15596,35.47219 10.73765,0.61477 13.73081,1.00582 15.3478,2.00517 0.62562,0.38666 0.99624,11.71088 0.99624,30.44007 l 0,29.8244 -2.25,0.603 c -2.64516,0.7089 -4.3646,0.652 -11.75,-0.3885 z M 268.0394,248.60602 c 7.138,-8.80424 11.7953,-16.60825 11.7953,-19.76496 0,-1.83624 -1.2371,-4.92265 -3,-7.48504 -1.65,-2.39819 -3,-4.86646 -3,-5.48504 0,-0.61859 1.8193,-3.80374 4.0429,-7.07812 4.2373,-6.23982 5.5168,-6.67603 11.1413,-3.79851 0.9264,0.47392 3.2506,0.86167 5.165,0.86167 2.8951,0 4.189,-0.79923 7.6897,-4.75 5.6887,-6.42003 12.96107,-17.33347 12.96107,-19.45037 0,-3.66767 -5.11497,-6.42856 -25.74997,-13.89899 -17.2193,-6.23383 -23.3633,-8.49351 -40.75,-14.98738 -14.4952,-5.41388 -20.9117,-6.47546 -23.942,-3.96111 -0.9625,0.79868 -4.253,4.84868 -7.3122,9 -3.0591,4.15132 -6.7679,9.12285 -8.2416,11.04785 -7.3571,9.60969 -7.1153,13.56546 1.4958,24.47413 26.8541,34.0192 46.9357,58.48747 48.2954,58.84529 4.4489,1.17076 6.0625,0.55864 9.4093,-3.56942 z m -20.5617,-58.33683 c -5.4214,-5.24286 -9.6545,-9.73499 -9.407,-9.98251 0.2475,-0.24752 3.7832,1.29052 7.857,3.41786 11.6386,6.07764 16.3701,8.57981 16.8631,8.91775 0.8102,0.55537 -3.2341,7.23465 -4.3636,7.20655 -0.6009,-0.0149 -5.5282,-4.31679 -10.9495,-9.55965 z m 688.82321,39.29804 c 2.86138,-1.99674 7.84637,-5.64104 30.53376,-22.32189 5.225,-3.84167 12.63803,-9.21336 16.4734,-11.93709 3.83537,-2.72373 8.95647,-6.86411 11.38021,-9.20086 4.1602,-4.01088 4.37903,-4.49503 3.91048,-8.65196 -0.37096,-3.29121 -1.7298,-6.00649 -5.3802,-10.75092 -6.86236,-8.919 -7.96175,-9.84849 -11.6487,-9.84849 -4.33734,0 -9.05323,2.64173 -22.23519,12.45562 -6.05,4.50419 -14.06676,10.4068 -17.81502,13.11691 -18.69131,13.5144 -28.25513,21.234 -29.9898,24.20679 -1.69406,2.9032 -1.7606,3.64871 -0.58018,6.5 1.64172,3.96556 7.28138,11.97279 11.64451,16.53297 2.93411,3.06663 3.62955,3.3373 6.96623,2.71134 2.0387,-0.38246 5.07193,-1.64805 6.7405,-2.81242 z m -26.50466,-44.39888 c 4.23492,-1.85276 8.13855,-5.13207 17.38059,-14.60087 22.2107,-22.75567 26.65783,-29.65479 26.65783,-41.35601 0,-8.93773 -4.2795,-16.60931 -15.55547,-27.88528 -7.69111,-7.691108 -10.89004,-10.112678 -17.73702,-13.426808 -6.81024,-3.29634 -9.42273,-4.04336 -14.14057,-4.04336 -9.72023,0 -15.53676,3.78616 -33.24995,21.643448 -12.90229,13.00725 -15.74451,16.44263 -18.92089,22.8696 -4.99885,10.11449 -5.50136,16.01779 -2.01244,23.64163 5.57654,12.18565 18.9962,25.93665 31.61634,32.39697 9.41354,4.81885 16.22918,5.01855 25.96158,0.76068 z m -27.73907,-27.86903 c -1.59136,-1.11463 -2.22251,-2.57112 -2.22251,-5.1288 0,-4.10997 0.54228,-4.78407 20.56544,-25.5645 11.97801,-12.43101 13.57871,-13.75 16.68676,-13.75 7.09244,0 8.87922,6.4747 3.4978,12.67488 -4.39286,5.06122 -16.78139,18.32288 -24.82545,26.57512 -6.99128,7.17221 -9.51248,8.12778 -13.70204,5.1933 z m -556.76571,17.02146 c 7.08244,-4.80628 12.54351,-10.63294 12.53808,-13.37744 -0.006,-3.10587 -2.91715,-8.0147 -8.99488,-15.16808 -11.97521,-14.09462 -18.4366,-21.66794 -20.69237,-24.2533 -1.3601,-1.55873 -2.2677,-3.03918 -2.017,-3.28988 0.2507,-0.2507 9.40035,6.22654 20.33259,14.39388 10.93223,8.16734 21.29845,15.42297 23.03605,16.12362 3.66741,1.47881 5.67065,0.72379 11.37673,-4.28788 1.9448,-1.70812 5.9948,-5.11959 9,-7.58103 3.0052,-2.46144 7.8265,-6.78046 10.714,-9.59782 5.83042,-5.6888 6.70317,-9.19974 3.53285,-14.21201 -1.5039,-2.37766 -14.60142,-18.374738 -18.04145,-22.035508 -0.69223,-0.73665 -5.63877,-6.59085 -10.99231,-13.00934 -20.29086,-24.32718 -22.20516,-26.16997 -27.18543,-26.16997 -4.20379,0 -6.83966,1.67779 -14.4257,9.18225 -4.56273,4.51371 -4.81913,5.03855 -4.16471,8.52684 0.64698,3.44869 3.82224,7.96685 12.15169,17.29091 6.76546,7.57333 17.20953,20.498868 16.85218,20.856208 -0.20765,0.20766 -5.46246,-3.42211 -11.67734,-8.066138 -18.99475,-14.19372 -23.20625,-17.23574 -25.66405,-18.53768 -2.9663,-1.57124 -7.9678,-1.55594 -10.8025,0.0331 -2.9619,1.66029 -23.3213,18.55614 -25.9865,21.565708 -2.5372,2.865 -3.5199,6.8867 -2.5454,10.41723 0.5473,1.98294 13.2141,18.33541 18.7128,24.15777 0.5578,0.59062 3.4828,3.99885 6.5,7.57385 3.0173,3.575 5.7118,6.725 5.9879,7 0.2762,0.275 3.7818,4.40154 7.7904,9.17009 13.82925,16.45119 17.27557,18.30884 24.66437,13.29467 z M 839.895,125.57313 c 5.8256,-3.23557 10.93967,-9.84659 10.93967,-14.14184 0,-4.94563 -3.83023,-8.47295 -15.80826,-14.558088 -8.37475,-4.25458 -10.44462,-3.67784 -17.43195,4.857158 -2.40953,2.94323 -5.98014,2.65638 -9.65403,-0.77555 -4.19844,-3.921928 -4.18219,-4.056128 1.73748,-14.348788 1.18622,-2.0625 2.99239,-5.2125 4.01371,-7 6.21312,-10.87406 15.27902,-25.60076 16.93675,-27.51213 2.48896,-2.8698 7.10181,-2.91552 10.12355,-0.10033 1.99011,1.85406 2.19071,2.68291 1.51264,6.25 -1.99011,10.46922 -0.67365,12.80002 10.97196,19.42587 9.72823,5.53495 13.87342,5.81728 17.72219,1.20708 5.14257,-6.15997 5.02985,-19.01455 -0.23391,-26.67489 -13.14257,-19.1264 -45.23689,-32.891591 -59.49866,-25.51887 -6.1463,3.17737 -18.25981,17.23186 -21.69674,25.17327 -0.35705,0.825 -2.03073,3.75 -3.71929,6.5 -4.73312,7.70839 -9.59962,18.46056 -10.92132,24.12981 -3.26593,14.0088 8.51431,29.628728 30.44548,40.368998 11.25518,5.51196 13.12065,5.95729 23.06073,5.50522 5.20659,-0.2368 8.22599,-0.96853 11.5,-2.78692 z M 407.18322,112.49158 c 13.8445,-6.60525 15.17537,-8.21757 14.24873,-17.262098 l -0.6478,-6.32288 6.87755,-3.46347 6.87755,-3.46348 4.69833,4.43818 c 6.36432,6.01193 8.70619,5.90474 22.53675,-1.03155 11.83901,-5.93749 13.16343,-7.49645 10.5924,-12.46826 -1.33136,-2.57457 -13.64984,-17.22598 -18.54908,-22.062 -0.83579,-0.825 -4.88637,-5.32412 -9.0013,-9.99804 -4.11492,-4.67392 -8.16492,-9.17392 -9,-10 -0.83507,-0.82608 -4.88507,-5.32601 -9,-9.999851 C 415.16693,7.6264057 414.48934,7.1592487 407.84191,7.7764007 c -4.66798,0.43338 -28.40188,12.5714803 -31.28802,16.0014613 -2.89254,3.43759 -3.52364,8.14189 -1.83508,13.67894 0.48627,1.59457 1.41852,6.04922 2.07166,9.89922 1.37527,8.1066 2.27712,13.014 5.05374,27.5 1.10693,5.775 2.45542,12.975 2.99663,16 3.54944,19.838738 4.85703,24.241738 7.68839,25.888878 2.62307,1.52596 2.41279,1.58699 14.65399,-4.25332 z m 2.78381,-56.209448 c -2.33809,-6.9524 -3.99937,-12.89244 -3.69172,-13.20008 0.68747,-0.68747 -0.14467,-1.76801 8.5251,11.06994 6.92484,10.2541 7.1965,10.86736 5.41252,12.2182 -1.03304,0.78222 -2.17896,1.43653 -2.54647,1.45403 -0.36752,0.0175 -1.29374,0.27184 -2.05828,0.56522 -1.02436,0.39308 -2.50845,-2.79213 -5.64115,-12.10731 z m 349.19433,32.4709 c 3.16215,-1.44077 6.67462,-7.77911 6.66834,-12.03316 -0.009,-6.16558 -3.12045,-8.54028 -17.47608,-13.33845 -7.12452,-2.38128 -13.10722,-4.7902 -13.29487,-5.35317 -0.41052,-1.23154 1.4161,-8.11477 2.6695,-10.05948 0.73737,-1.14407 2.88483,-0.74949 12.25026,2.25087 14.24154,4.56249 16.10848,4.58406 20.45616,0.23638 2.70975,-2.70975 3.39354,-4.18161 3.3682,-7.25 -0.0534,-6.46616 -3.9951,-9.58598 -17.4682,-13.826 -4.95,-1.55778 -9.52153,-3.23405 -10.15896,-3.72505 -0.86318,-0.6649 -0.69393,-2.21326 0.66318,-6.066901 1.00218,-2.8458 2.25784,-5.3194 2.79034,-5.4969 0.53251,-0.17751 6.47024,1.49697 13.19495,3.72106 6.72472,2.22408 13.31893,4.043791 14.65381,4.043791 5.27348,0 10.35668,-5.842291 10.35668,-11.9032913 0,-4.880046 -1.95465,-7.861405 -6.29191,-9.59683302 C 769.22968,-4.5708193 732.34029,-16.143979 728.94948,-16.143979 c -4.293,0 -7.68872,2.962172 -9.87837,8.6171437 -3.50635,9.05545 -23.23644,70.9887573 -23.23644,72.9398173 0,5.26472 3.28216,6.98695 29.5,15.47932 13.75,4.45384 25.45,8.25718 26,8.45186 2.06948,0.73252 5.48831,0.47431 7.82669,-0.59113 z M 495.83467,74.071272 c 39.9388,-8.70983 47.59494,-11.41927 54.25539,-19.20051 6.38956,-7.46476 6.15271,-12.30052 -2.40068,-49.0147413 -4.3438,-18.6451487 -7.94365,-25.2482547 -16.37485,-30.0359307 -3.30533,-1.87694 -5.42049,-2.24933 -12.47986,-2.197177 -4.675,0.03454 -11.425,0.73166 -15,1.549162 -3.575,0.817502 -12.575,2.871096 -20,4.563543 -18.19194,4.146652 -20.45299,4.846564 -22.21283,6.876015 -2.93446,3.384032 -2.86206,7.9323497 0.35113,22.0574377 1.71244,7.5278203 3.91242,17.2869513 4.88884,21.6869513 0.97643,4.4 2.77257,12.275 3.99143,17.5 1.21887,5.225 2.62031,11.525 3.11431,14 1.4013,7.02056 4.96299,13.37829 7.86712,14.04308 2.40414,0.55034 4.12549,0.3256 14,-1.82783 z m 10.97525,-26.78035 c -0.53639,-1.4108 -0.97525,-2.9771 -0.97525,-3.48066 0,-0.83376 -2.94441,-13.81537 -8.13137,-35.8503513 -1.35642,-5.762285 -1.6532,-8.71932002 -0.94607,-9.426455 0.5667,-0.566693 3.31614,-1.063445 6.10989,-1.103893 6.26041,-0.09064 7.987,1.78119798 9.9163,10.750498 0.73065,3.3967803 2.13722,9.5509603 3.12571,13.6759613 3.99008,16.65066 4.40084,19.74337 2.97588,22.40594 -1.1738,2.19326 -7.31105,5.59406 -10.09533,5.59406 -0.55248,0 -1.44337,-1.15429 -1.97976,-2.5651 z m 145.39843,11.27137 2.08212,-2.79373 -4.65437,-18.20627 c -2.5599,-10.01345 -5.58746,-21.693771 -6.7279,-25.956271 -1.14044,-4.2625003 -3.00657,-11.23750032 -4.14695,-15.5000003 -1.14038,-4.2625 -2.75324,-10.4499997 -3.58413,-13.7499997 -2.32076,-9.217222 -4.13891,-12.521512 -7.68117,-13.959699 -4.05005,-1.644354 -29.16731,-2.663379 -34.74698,-1.40971 -4.18207,0.939649 -7.37854,3.520705 -8.34481,6.738187 -18.63806,62.061393 -22.71078,76.285523 -22.75476,79.471903 -0.0292,2.11723 0.56302,4.46204 1.31607,5.2107 1.95707,1.94564 21.0861,3.03584 26.6557,1.51915 3.73904,-1.01819 4.55378,-1.76775 6.3793,-5.8689 1.15104,-2.5859 2.41955,-5.37663 2.8189,-6.20163 0.53799,-1.11139 2.8298,-1.57514 8.84622,-1.79005 l 8.12012,-0.29004 1.09994,4.36826 c 0.60496,2.40254 2.13409,5.66521 3.39805,7.25037 2.66748,3.34534 7.65857,4.29678 21.44675,4.08837 7.96065,-0.12033 8.50368,-0.2717 10.4779,-2.92064 z m -48.08208,-36.45627 c 3.32129,-22.44375732 4.15417,-26.5079243 4.9696,-24.2500013 0.78534,2.17460898 3.44733,26.3615013 2.99911,27.2500013 -0.20809,0.4125 -2.21104,0.75 -4.451,0.75 l -4.07265,0 0.55494,-3.75 z"
       id="path3362"
       inkscape:connector-curvature="0"
       inkscape:export-xdpi="90"
       inkscape:export-ydpi="90" />
  </g>
</svg>
